<?xml version="1.0" encoding="UTF-8"?>
<svg version="1.1" xmlns="http://www.w3.org/2000/svg" width="512" height="512">
<path d="M0 0 C7.74841 6.58323556 12.73296031 14.45730341 16.22265625 23.95703125 C16.22265625 24.94703125 16.22265625 25.93703125 16.22265625 26.95703125 C16.88797363 26.93608398 17.55329102 26.91513672 18.23876953 26.89355469 C21.27490927 26.81002516 24.31080668 26.75825522 27.34765625 26.70703125 C28.394375 26.67351563 29.44109375 26.64 30.51953125 26.60546875 C36.77496846 26.526286 40.49936148 26.70913303 45.22265625 30.95703125 C48.71287466 35.18203248 49.41765495 37.57206726 49.22265625 42.95703125 C49.94743164 42.93608398 50.67220703 42.91513672 51.41894531 42.89355469 C54.77003553 42.80932429 58.12090196 42.75803621 61.47265625 42.70703125 C62.6121875 42.67351562 63.75171875 42.64 64.92578125 42.60546875 C79.53318166 42.43947556 90.35718958 47.42060813 100.97265625 57.26953125 C110.29312475 67.11757344 113.71348444 78.51598097 113.56323242 91.82275391 C113.5636705 92.85809265 113.56410858 93.8934314 113.56455994 94.96014404 C113.56248706 98.34732605 113.53922695 101.73399931 113.515625 105.12109375 C113.51002371 107.48334483 113.50575613 109.84559941 113.50276184 112.20785522 C113.49135508 118.39908618 113.46192382 124.5901031 113.4286499 130.78125 C113.39785897 137.10934556 113.38423726 143.43747599 113.36914062 149.765625 C113.33705009 162.16285401 113.28590435 174.55992477 113.22265625 186.95703125 C114.43211914 186.93608398 115.64158203 186.91513672 116.88769531 186.89355469 C121.42761122 186.82048285 125.96747649 186.77499008 130.5078125 186.73730469 C132.46297991 186.71734086 134.4180888 186.69015989 136.37304688 186.65527344 C154.41276515 186.3416996 167.31573702 188.59877906 180.97265625 201.26953125 C192.36431714 213.30600314 193.67323561 226.63609121 193.62670898 242.42529297 C193.63241959 244.18067864 193.63938651 245.93606059 193.64750671 247.69143677 C193.66537778 252.4353547 193.66428107 257.17908705 193.65856433 261.92302847 C193.65546345 265.89396708 193.66157497 269.86487051 193.66760308 273.8358041 C193.68162707 283.20941378 193.68010496 292.58293227 193.66870117 301.95654297 C193.65722421 311.60302607 193.67129343 321.249231 193.69809765 330.89567745 C193.72030246 339.20005169 193.7268812 347.50433893 193.72102123 355.80874074 C193.71766163 360.75878065 193.72000014 365.70864233 193.73727226 370.65865707 C193.75281554 375.31605094 193.74870451 379.97303495 193.72996712 384.63041306 C193.72630147 386.33146592 193.72933007 388.03254965 193.73985291 389.73357391 C193.83415917 406.24983201 190.33902286 418.3886538 178.91015625 430.70703125 C167.7836397 441.23748442 155.52165222 443.4146273 140.69189453 443.36108398 C139.25177484 443.36679777 137.81165967 443.3737659 136.37155151 443.38188171 C132.48709816 443.39971818 128.60287188 443.39866269 124.71838999 443.39293933 C121.46322303 443.38983326 118.20809881 443.39595569 114.95293796 443.40197808 C107.26692848 443.41599081 99.58103023 443.41448953 91.89501953 443.40307617 C83.9935236 443.39160134 76.09236736 443.40566725 68.19091618 443.43247265 C61.38121738 443.45470038 54.57162466 443.46125107 47.7618922 443.45539623 C43.70609895 443.45204192 39.65052328 443.45433914 35.59476089 443.47164726 C31.77781064 443.48722752 27.96135958 443.48303981 24.14442825 443.46434212 C22.75298654 443.46068645 21.36150691 443.46367525 19.9701004 443.47422791 C4.34589577 443.5835713 -7.07116807 439.27345573 -18.52734375 428.64453125 C-23.04143367 423.92720032 -26.71129803 418.1551684 -28.77734375 411.95703125 C-29.59565611 411.95483141 -29.59565611 411.95483141 -30.43050003 411.95258713 C-43.75380347 411.9154063 -57.07685171 411.85599479 -70.39995193 411.77312851 C-76.84314198 411.73371495 -83.28619661 411.70149628 -89.72949219 411.68603516 C-95.95422775 411.67082853 -102.17859085 411.63631122 -108.4031601 411.58872223 C-110.77121483 411.57394982 -113.13932274 411.56599263 -115.5074234 411.5651474 C-134.58288629 411.5514985 -147.98910699 410.13296098 -162.52734375 396.64453125 C-172.30889958 386.30930245 -175.24094217 374.63027458 -175.1650238 360.74978638 C-175.17040934 359.55731163 -175.17579488 358.36483688 -175.18134362 357.13622653 C-175.19311249 353.85261907 -175.19158153 350.56934051 -175.1841768 347.2857306 C-175.17942535 343.73415457 -175.19197239 340.1826317 -175.20219421 336.631073 C-175.21934917 329.68340766 -175.22022909 322.73583289 -175.21498131 315.78815188 C-175.2109321 310.13821697 -175.21239207 304.48830873 -175.21772957 298.83837509 C-175.21847799 298.03278918 -175.21922641 297.22720328 -175.21999751 296.39720567 C-175.22152907 294.76040578 -175.22306741 293.1236059 -175.22461248 291.48680602 C-175.23832564 276.15331694 -175.23290823 260.81987895 -175.22142727 245.48639105 C-175.21149677 231.4756534 -175.22443447 217.46504785 -175.24836146 203.45433058 C-175.27277671 189.04854423 -175.28235433 174.64281935 -175.27570873 160.23701274 C-175.27222182 152.15708568 -175.27441361 144.07726015 -175.29195976 135.99734879 C-175.30671216 129.11895267 -175.3072777 122.24072961 -175.28988885 115.36233677 C-175.28140121 111.85696103 -175.27917388 108.35189403 -175.29454041 104.84653473 C-175.30776928 101.03681523 -175.29618419 97.22792763 -175.27854919 93.41824341 C-175.2881542 92.3238618 -175.29775921 91.22948019 -175.30765527 90.10193551 C-175.17483339 76.09640618 -169.88616152 65.36161196 -160.46484375 55.20703125 C-149.59022238 44.91497888 -137.69876825 42.45330463 -123.15234375 42.76953125 C-121.95738281 42.78306641 -120.76242188 42.79660156 -119.53125 42.81054688 C-116.61279575 42.84556833 -113.69532027 42.89468132 -110.77734375 42.95703125 C-110.81085938 42.03148437 -110.844375 41.1059375 -110.87890625 40.15234375 C-110.74464935 35.92841504 -109.44893569 34.19106359 -106.77734375 30.95703125 C-101.26738404 26.00164541 -96.06130654 26.47780338 -88.90234375 26.70703125 C-87.83242187 26.72507813 -86.7625 26.743125 -85.66015625 26.76171875 C-83.03162197 26.80865686 -80.40495462 26.87430192 -77.77734375 26.95703125 C-77.60912109 25.63638672 -77.60912109 25.63638672 -77.4375 24.2890625 C-75.44039961 14.20902326 -68.1905094 5.0188811 -60.1015625 -1.05078125 C-41.24466424 -13.5177209 -18.35894936 -13.50454362 0 0 Z " fill="#068FFF" transform="translate(238.77734375,37.04296875)"/>
<path d="M0 0 C1.41041414 -0.005995 2.82082503 -0.01280276 4.23123169 -0.02035522 C8.03925205 -0.0379229 11.84718237 -0.04270665 15.65523934 -0.0439868 C18.04056166 -0.04541412 20.4258615 -0.04969465 22.81117821 -0.05498123 C31.15033787 -0.07345042 39.48943385 -0.08165569 47.82861328 -0.08007812 C55.57386644 -0.07887732 63.31884069 -0.09997554 71.06402332 -0.13156545 C77.73781102 -0.15780523 84.41150805 -0.16844222 91.08534688 -0.16716731 C95.06068868 -0.16665996 99.03578224 -0.17221603 103.01107216 -0.19352341 C106.75330043 -0.21303663 110.49504694 -0.21294224 114.23729324 -0.19849014 C116.2459525 -0.19543739 118.2546125 -0.21198603 120.26319885 -0.22937012 C134.99236653 -0.12838244 145.86680202 4.63730882 156.6081543 14.60302734 C167.99981519 26.63949923 169.30873365 39.96958731 169.26220703 55.75878906 C169.26791763 57.51417473 169.27488455 59.26955669 169.28300476 61.02493286 C169.30087583 65.76885079 169.29977912 70.51258314 169.29406238 75.25652456 C169.29096149 79.22746318 169.29707302 83.19836661 169.30310112 87.1693002 C169.31712511 96.54290987 169.31560301 105.91642836 169.30419922 115.29003906 C169.29272225 124.93652216 169.30679148 134.58272709 169.33359569 144.22917354 C169.3558005 152.53354779 169.36237925 160.83783502 169.35651928 169.14223683 C169.35315967 174.09227674 169.35549819 179.04213843 169.37277031 183.99215317 C169.38831359 188.64954704 169.38420256 193.30653104 169.36546516 197.96390915 C169.36179952 199.66496201 169.36482812 201.36604574 169.37535095 203.06707001 C169.46965722 219.58332811 165.9745209 231.72214989 154.5456543 244.04052734 C143.41913774 254.57098051 131.15715027 256.74812339 116.32739258 256.69458008 C114.88727289 256.70029387 113.44715772 256.707262 112.00704956 256.71537781 C108.12259621 256.73321427 104.23836992 256.73215878 100.35388803 256.72643542 C97.09872108 256.72332935 93.84359685 256.72945178 90.58843601 256.73547417 C82.90242653 256.7494869 75.21652828 256.74798563 67.53051758 256.73657227 C59.62902165 256.72509743 51.72786541 256.73916334 43.82641423 256.76596874 C37.01671543 256.78819648 30.20712271 256.79474716 23.39739025 256.78889233 C19.34159699 256.78553801 15.28602132 256.78783523 11.23025894 256.80514336 C7.41330869 256.82072361 3.59685762 256.8165359 -0.2200737 256.79783821 C-1.61151542 256.79418254 -3.00299505 256.79717134 -4.39440155 256.807724 C-20.01860619 256.91706739 -31.43567002 252.60695183 -42.8918457 241.97802734 C-54.92288471 229.15248576 -55.59833474 213.63229734 -55.5300293 196.99487305 C-55.53410491 195.30624047 -55.53945229 193.61761056 -55.54595947 191.9289856 C-55.55951822 187.38576471 -55.55438309 182.84275049 -55.54482222 178.29952645 C-55.53716952 173.52277377 -55.54428633 168.74603751 -55.54898071 163.96928406 C-55.55442046 155.954507 -55.54729195 147.93981321 -55.53295898 139.92504883 C-55.51661918 130.68180601 -55.52193784 121.43876162 -55.5384382 112.19552356 C-55.55208401 104.22993764 -55.55395813 96.26441118 -55.54612219 88.29881734 C-55.54146481 83.55402481 -55.54076758 78.80932536 -55.55073166 74.06453896 C-55.55944489 69.60495021 -55.55330047 65.14561573 -55.53604889 60.68605423 C-55.53210792 59.05714654 -55.53317673 57.42821716 -55.53983688 55.79931831 C-55.59948406 39.71982287 -52.89215856 26.17976322 -41.5793457 14.04052734 C-29.28338487 2.41121499 -16.29204356 -0.0113185 0 0 Z " fill="#DFDFDF" transform="translate(263.141845703125,223.70947265625)"/>
<path d="M0 0 C7.74841 6.58323556 12.73296031 14.45730341 16.22265625 23.95703125 C16.22265625 24.94703125 16.22265625 25.93703125 16.22265625 26.95703125 C16.88797363 26.93608398 17.55329102 26.91513672 18.23876953 26.89355469 C21.27490927 26.81002516 24.31080668 26.75825522 27.34765625 26.70703125 C28.394375 26.67351563 29.44109375 26.64 30.51953125 26.60546875 C36.58162847 26.52873334 40.59286017 26.60127295 45.22265625 30.95703125 C50.4204913 36.65691974 49.78716842 42.59611707 49.71875 50.01953125 C49.72020523 51.28418213 49.72166046 52.54883301 49.72315979 53.85180664 C49.72150201 56.52187877 49.71205352 59.19051786 49.68920898 61.86035156 C49.66082445 65.26995525 49.66356631 68.67866314 49.6762991 72.08833313 C49.6849551 75.35712287 49.66979869 78.62576942 49.65625 81.89453125 C49.65918564 83.11342041 49.66212128 84.33230957 49.66514587 85.58813477 C49.590973 92.26257405 49.43190512 97.43855788 44.72265625 102.6015625 C40.21642569 106.11032015 37.33250906 107.08013048 31.70121765 107.10420227 C29.97892944 107.11493523 29.97892944 107.11493523 28.22184753 107.12588501 C26.96100845 107.12857391 25.70016937 107.13126282 24.40112305 107.1340332 C23.06067733 107.14029928 21.72023335 107.14694621 20.37979126 107.15394592 C15.97716477 107.17497003 11.574538 107.18534613 7.171875 107.1953125 C5.65549005 107.19936055 4.13910529 107.20347748 2.62272072 107.20766258 C-4.50105177 107.22670992 -11.62481392 107.24094241 -18.74860698 107.24927455 C-26.969022 107.25904842 -35.18916785 107.28537352 -43.40948802 107.32577544 C-49.76543064 107.35594124 -56.12129611 107.37074382 -62.47730893 107.37405556 C-66.27260006 107.37640537 -70.06760349 107.38535645 -73.86281776 107.41051674 C-77.43421205 107.43381119 -81.00512946 107.43802555 -84.57658005 107.42775536 C-86.50774469 107.42702461 -88.43888519 107.44610585 -90.36994934 107.46582031 C-96.78721803 107.42729502 -100.95532044 107.38783015 -105.77734375 102.95703125 C-109.82951312 98.46678952 -110.89585443 95.36244691 -110.9543457 89.38745117 C-110.96718094 88.2458403 -110.98001617 87.10422943 -110.99324036 85.92802429 C-111.00062729 84.69365128 -111.00801422 83.45927826 -111.015625 82.1875 C-111.02369675 80.91860428 -111.03176849 79.64970856 -111.04008484 78.34236145 C-111.05392533 75.65488026 -111.0649419 72.96752172 -111.07250977 70.2800293 C-111.08356611 66.84678185 -111.11796244 63.41418399 -111.15768147 59.98116589 C-111.19019748 56.69584199 -111.19463053 53.41046027 -111.203125 50.125 C-111.22063309 48.89669968 -111.23814117 47.66839935 -111.25617981 46.40287781 C-111.23981264 39.96319773 -111.2154319 35.80001546 -106.77734375 30.95703125 C-102.14754767 26.60127295 -98.13631597 26.52873334 -92.07421875 26.60546875 C-91.0275 26.63898437 -89.98078125 26.6725 -88.90234375 26.70703125 C-87.83242187 26.72507813 -86.7625 26.743125 -85.66015625 26.76171875 C-83.03162197 26.80865686 -80.40495462 26.87430192 -77.77734375 26.95703125 C-77.66519531 26.07660156 -77.55304688 25.19617187 -77.4375 24.2890625 C-75.44039961 14.20902326 -68.1905094 5.0188811 -60.1015625 -1.05078125 C-41.24466424 -13.5177209 -18.35894936 -13.50454362 0 0 Z " fill="#5d4037" transform="translate(238.77734375,37.04296875)"/>
<path d="M0 0 C0.87756454 -0.00571014 1.75512909 -0.01142029 2.6592865 -0.01730347 C3.62449722 -0.01842133 4.58970795 -0.01953918 5.58416748 -0.02069092 C6.59894669 -0.02565582 7.61372589 -0.03062073 8.65925598 -0.03573608 C12.02843903 -0.05038367 15.39757497 -0.05716457 18.76678467 -0.06268311 C21.1036784 -0.06843309 23.44057212 -0.07419084 25.77746582 -0.07995605 C30.68357565 -0.09047389 35.58966905 -0.09631121 40.49578857 -0.09979248 C46.78181927 -0.10527422 53.06763304 -0.1292923 59.35359573 -0.15776443 C64.18345777 -0.17639194 69.01326761 -0.18159652 73.84316254 -0.18312836 C76.16039972 -0.18615591 78.47763596 -0.19418788 80.79483795 -0.20731354 C84.038584 -0.22437352 87.28180098 -0.22249349 90.52557373 -0.21600342 C91.96124443 -0.22982559 91.96124443 -0.22982559 93.42591858 -0.243927 C99.36996139 -0.20668392 103.91890757 0.43821488 108.45819092 4.67559814 C112.64730519 10.15367065 113.43518369 13.32669708 112.81365967 20.14044189 C110.98831376 25.41366342 108.20646764 27.93735275 103.81365967 31.14044189 C101.04175267 32.06441089 99.36858106 32.27160156 96.50706482 32.28761292 C95.62812561 32.29476822 94.7491864 32.30192352 93.84361267 32.30929565 C92.4011895 32.31332901 92.4011895 32.31332901 90.92962646 32.31744385 C89.40723862 32.32730064 89.40723862 32.32730064 87.85409546 32.33735657 C84.49035572 32.35709185 81.12666061 32.36875204 77.76287842 32.37872314 C76.6146995 32.38279867 75.46652058 32.3868742 74.28354836 32.39107323 C68.20773117 32.41193383 62.13193657 32.42623625 56.05609131 32.43560791 C49.7778717 32.446679 43.50000587 32.48108737 37.22191143 32.52077961 C32.39634029 32.54691037 27.57085395 32.55529657 22.74521828 32.55888939 C20.43075989 32.5637636 18.11630549 32.57540121 15.80191612 32.59392738 C12.56294988 32.61824524 9.32490583 32.61736701 6.08587646 32.6104126 C5.13033371 32.62322266 4.17479095 32.63603271 3.19029236 32.64923096 C-2.45176682 32.60508234 -5.72619644 31.93805705 -10.18634033 28.14044189 C-14.48861623 23.37305509 -15.54916536 19.70296895 -15.46759033 13.42169189 C-14.87814645 8.64064703 -12.03813237 5.89083012 -8.56134033 2.82794189 C-5.40714188 0.58680089 -3.80566829 0.01480454 0 0 Z " fill="#5d4037" transform="translate(271.18634033203125,383.85955810546875)"/>
<path d="M0 0 C0.87756454 -0.00571014 1.75512909 -0.01142029 2.6592865 -0.01730347 C3.62449722 -0.01842133 4.58970795 -0.01953918 5.58416748 -0.02069092 C6.59894669 -0.02565582 7.61372589 -0.03062073 8.65925598 -0.03573608 C12.02843903 -0.05038367 15.39757497 -0.05716457 18.76678467 -0.06268311 C21.1036784 -0.06843309 23.44057212 -0.07419084 25.77746582 -0.07995605 C30.68357565 -0.09047389 35.58966905 -0.09631121 40.49578857 -0.09979248 C46.78181927 -0.10527422 53.06763304 -0.1292923 59.35359573 -0.15776443 C64.18345777 -0.17639194 69.01326761 -0.18159652 73.84316254 -0.18312836 C76.16039972 -0.18615591 78.47763596 -0.19418788 80.79483795 -0.20731354 C84.038584 -0.22437352 87.28180098 -0.22249349 90.52557373 -0.21600342 C91.96124443 -0.22982559 91.96124443 -0.22982559 93.42591858 -0.243927 C99.36996139 -0.20668392 103.91890757 0.43821488 108.45819092 4.67559814 C112.64730519 10.15367065 113.43518369 13.32669708 112.81365967 20.14044189 C110.98831376 25.41366342 108.20646764 27.93735275 103.81365967 31.14044189 C101.04175267 32.06441089 99.36858106 32.27160156 96.50706482 32.28761292 C95.62812561 32.29476822 94.7491864 32.30192352 93.84361267 32.30929565 C92.4011895 32.31332901 92.4011895 32.31332901 90.92962646 32.31744385 C89.40723862 32.32730064 89.40723862 32.32730064 87.85409546 32.33735657 C84.49035572 32.35709185 81.12666061 32.36875204 77.76287842 32.37872314 C76.6146995 32.38279867 75.46652058 32.3868742 74.28354836 32.39107323 C68.20773117 32.41193383 62.13193657 32.42623625 56.05609131 32.43560791 C49.7778717 32.446679 43.50000587 32.48108737 37.22191143 32.52077961 C32.39634029 32.54691037 27.57085395 32.55529657 22.74521828 32.55888939 C20.43075989 32.5637636 18.11630549 32.57540121 15.80191612 32.59392738 C12.56294988 32.61824524 9.32490583 32.61736701 6.08587646 32.6104126 C5.13033371 32.62322266 4.17479095 32.63603271 3.19029236 32.64923096 C-2.45176682 32.60508234 -5.72619644 31.93805705 -10.18634033 28.14044189 C-14.48861623 23.37305509 -15.54916536 19.70296895 -15.46759033 13.42169189 C-14.87814645 8.64064703 -12.03813237 5.89083012 -8.56134033 2.82794189 C-5.40714188 0.58680089 -3.80566829 0.01480454 0 0 Z " fill="#5d4037" transform="translate(271.18634033203125,335.85955810546875)"/>
<path d="M0 0 C0.87756454 -0.00571014 1.75512909 -0.01142029 2.6592865 -0.01730347 C3.62449722 -0.01842133 4.58970795 -0.01953918 5.58416748 -0.02069092 C6.59894669 -0.02565582 7.61372589 -0.03062073 8.65925598 -0.03573608 C12.02843903 -0.05038367 15.39757497 -0.05716457 18.76678467 -0.06268311 C21.1036784 -0.06843309 23.44057212 -0.07419084 25.77746582 -0.07995605 C30.68357565 -0.09047389 35.58966905 -0.09631121 40.49578857 -0.09979248 C46.78181927 -0.10527422 53.06763304 -0.1292923 59.35359573 -0.15776443 C64.18345777 -0.17639194 69.01326761 -0.18159652 73.84316254 -0.18312836 C76.16039972 -0.18615591 78.47763596 -0.19418788 80.79483795 -0.20731354 C84.038584 -0.22437352 87.28180098 -0.22249349 90.52557373 -0.21600342 C91.96124443 -0.22982559 91.96124443 -0.22982559 93.42591858 -0.243927 C99.36996139 -0.20668392 103.91890757 0.43821488 108.45819092 4.67559814 C112.64730519 10.15367065 113.43518369 13.32669708 112.81365967 20.14044189 C110.98831376 25.41366342 108.20646764 27.93735275 103.81365967 31.14044189 C101.04175267 32.06441089 99.36858106 32.27160156 96.50706482 32.28761292 C95.62812561 32.29476822 94.7491864 32.30192352 93.84361267 32.30929565 C92.4011895 32.31332901 92.4011895 32.31332901 90.92962646 32.31744385 C89.40723862 32.32730064 89.40723862 32.32730064 87.85409546 32.33735657 C84.49035572 32.35709185 81.12666061 32.36875204 77.76287842 32.37872314 C76.6146995 32.38279867 75.46652058 32.3868742 74.28354836 32.39107323 C68.20773117 32.41193383 62.13193657 32.42623625 56.05609131 32.43560791 C49.7778717 32.446679 43.50000587 32.48108737 37.22191143 32.52077961 C32.39634029 32.54691037 27.57085395 32.55529657 22.74521828 32.55888939 C20.43075989 32.5637636 18.11630549 32.57540121 15.80191612 32.59392738 C12.56294988 32.61824524 9.32490583 32.61736701 6.08587646 32.6104126 C5.13033371 32.62322266 4.17479095 32.63603271 3.19029236 32.64923096 C-2.45176682 32.60508234 -5.72619644 31.93805705 -10.18634033 28.14044189 C-14.48861623 23.37305509 -15.54916536 19.70296895 -15.46759033 13.42169189 C-14.87814645 8.64064703 -12.03813237 5.89083012 -8.56134033 2.82794189 C-5.40714188 0.58680089 -3.80566829 0.01480454 0 0 Z " fill="#5d4037" transform="translate(271.18634033203125,287.85955810546875)"/>
</svg>
